<svg version="1.1" id="Layer_1" xmlns="http://www.w3.org/2000/svg" x="0" y="0" viewBox="0 0 1920 1080" style="enable-background:new 0 0 1920 1080" xml:space="preserve"><style>.st0{fill:#eadad0}.st1{fill:#f7ebe2}.st2{fill:#fff}</style><path class="st0" d="M0 926.8S80.5 742 359.6 768.1c279 26.1 511.2 136 706.7-1.1s118.1-183.7 169-234.7c50.9-51 118.1-61.2 118.1-61.2h566.2v609.3H3.1L0 926.8z"/><path class="st0" d="M918.5 647.7s-75.4 10.1-90.5-78.4c-15.1-88.4 48.7-80.9 48.7-80.9s69.2 4.2 34.2 80.9c-26.1 57.3 7.6 78.4 7.6 78.4z"/><path class="st1" d="M1405 279.9S957 1168 0 845.6V1080h1920V3l-182.9 42.1S1489 135.5 1405 279.9z"/><path class="st2" d="M890.8 513.3s20.4-.6 21 18.5c.6 19.2-5.6 22.9-5.6 22.9s-21.6-11.7-15.4-41.4z"/><path class="st1" d="M828 702.9s-12.1-66.5-91-55c-78.9 11.4-55.1 63.3-55.1 63.3s22.5 57.3 77.7 6.8c41.3-37.8 68.4-15.1 68.4-15.1z"/><path class="st2" d="M706.8 716.3s5.1 17.4 21.4 12.7c16.4-4.7 17.8-11 17.8-11s-15.8-15.1-39.2-1.7z"/><path class="st0" d="M860.6 733.1s5.7 38.1-39 46.5c-44.7 8.4-41.4-24.1-41.4-24.1s1.6-35.1 40.7-18c29.3 12.9 39.7-4.4 39.7-4.4z"/></svg>