<?xml version="1.0" encoding="utf-8"?>
<!-- Generator: Adobe Illustrator 19.0.0, SVG Export Plug-In . SVG Version: 6.00 Build 0)  -->
<svg version="1.1" id="Layer_1" xmlns="http://www.w3.org/2000/svg" xmlns:xlink="http://www.w3.org/1999/xlink" x="0px" y="0px"
	 viewBox="-87 0 784.8 560" style="enable-background:new -87 0 784.8 560;" xml:space="preserve">
<style type="text/css">
	.st0{fill:#0F1A2E;}
</style>
<g id="Layer_2_1_">
	<g id="Header">
		<path class="st0" d="M-9.7,224.4c5.1-4.5,11.4-7.3,19-8.3c3.8-0.5,6.6-3.7,6.7-7.5v-13.4c0-0.9-0.4-1.8-1-2.5s-1.6-1-2.5-0.9
			c-7.4,0.3-14.7,1.6-21.7,4c-6.6,2.2-12.6,5.8-17.7,10.4c-5.1,4.7-9,10.4-11.7,16.9c-3,7.2-4.4,15-4.3,22.7v21.3
			c0,2.2-1.8,4.1-4.1,4.1h-2.4c-4.2,0-7.5,3.3-7.5,7.5l0,0v9.3c0,4.2,3.3,7.5,7.5,7.5l0,0h2.2c2.2,0,4.1,1.8,4.1,4.1v62.1
			c0,4.2,3.3,7.5,7.5,7.5h9.8c4.2,0,7.5-3.3,7.5-7.5v-62.1c0-2.2,1.8-4.1,4.1-4.1h13.8c4.2,0,7.5-3.3,7.5-7.5v-9.3
			c0-4.2-3.3-7.5-7.5-7.5h-13.6c-2.2,0-4.1-1.8-4.1-4.1v-20.7C-18.2,236.8-15.4,229.5-9.7,224.4z M349.5,496.1h-12.4
			c-1.6,0.1-2.9,1.5-2.8,3c0.1,1.5,1.3,2.7,2.8,2.8h1.8c0.9,0.1,1.6,0.8,1.5,1.8v18.7c-0.1,1.6,1.1,2.9,2.6,2.9c0,0,0,0,0.1,0h0.4
			c1.6,0,2.8-1.3,2.7-2.9c0,0,0,0,0-0.1v-18.7c-0.1-0.9,0.6-1.7,1.5-1.8h1.8c1.6-0.1,2.9-1.5,2.8-3
			C352.1,497.4,350.9,496.2,349.5,496.1L349.5,496.1z M349.7,316.5h-9.2c-4.3,0-7.8,3.5-7.8,7.8l-0.1,75.2l-0.7-0.5
			c-3-1.6-6-3-9.2-4c-3.9-1.2-7.8-1.8-11.9-1.8c-6.4,0-12.6,1.2-18.5,3.6c-5.5,2.3-10.6,5.7-15,10c-4.2,4.2-7.6,9.1-9.9,14.6
			c-2.5,5.6-3.7,11.6-3.7,17.7c0,6.1,1.2,12.2,3.6,17.8c2.3,5.4,5.7,10.5,10,14.7c4.2,4.2,9.3,7.7,15,10c5.8,2.4,12.1,3.7,18.5,3.6
			c4.2,0.1,8.5-0.5,12.6-1.7c3.1-0.9,6.3-2.1,9.2-3.6c0.8-0.5,1.7-0.9,2.3-1.4v1.3c0,1.8,1.6,3.4,3.4,3.4l0,0h11.4
			c4.3,0,7.8-3.5,7.8-7.8l0.1-151.3C357.5,320,354,316.5,349.7,316.5L349.7,316.5z M326.6,454.8c-4.1,4.2-9.2,6.2-15.9,6.2
			s-11.8-2-15.9-6.2c-4.1-4.2-6.3-9.7-6.1-15.5c0-6.4,1.9-11.4,6-15.4c4.1-4.1,9.2-6,15.9-6c6.6,0,11.8,1.9,15.9,6
			c4.1,4.1,6,9.1,6,15.4C332.8,445.1,330.5,450.6,326.6,454.8z M252.2,474.9l-13.8-17.3l2.1-4.1c1.8-2.6,3.2-5.4,4.2-8.3l2.4-4.7
			c1.8-3.6,0.5-8.1-3.1-10c0,0-0.1,0-0.1-0.1l-7.8-4c-3.7-1.8-8.2-0.5-10.2,3.2l-3.9,7.5L208.9,421c11.4-7.4,18.7-11.9,18.7-23.9
			c0-16.1-15.1-27.6-32.9-27.6c-17.5,0-32.6,10.5-32.6,26.4c0,6.2,2.5,13,8.7,20.6c1.2,1.4,0.9,3.5-0.5,4.7
			c-0.2,0.2-0.5,0.3-0.7,0.5c-15.5,8-23.4,18.5-23.4,31.3c0,20.8,19.4,31.7,42.3,31.7c13.4,0,22.7-2.8,32.6-9.7
			c0.5-0.4,1.1-0.6,1.7-0.6l6.5,8.1c1.2,1.6,3,2.6,5,2.8c1.2,0.2,7.8,0.2,12.5,0.2c5.4,0,9-6.1,5.7-10.3L252.2,474.9z M195.2,388.6
			c7.5,0,11.5,3.5,11.5,8.8c0,2.9-1.7,5.4-9.3,11.2c-1.7,1-3.8,0.7-5.2-0.6c-6.6-7.1-7.8-9.7-7.8-11.9
			C184.3,391.6,188,388.6,195.2,388.6z M205.9,461.2c-6.6,4.4-10.4,4.3-16.6,4.3c-10.5,0-17.9-5.9-17.9-15.2c0-6.5,3-11.5,11.8-16.2
			c1.5-0.7,3.1-0.3,4.2,0.9l19.2,21.6C207.8,458,207.6,460,205.9,461.2L205.9,461.2z M291.3,360.8h11.4c4.3,0,7.8-3.5,7.8-7.8l0,0
			l0.1-151.3c0-4.3-3.5-7.8-7.8-7.8h-9.2c-4.3,0-7.8,3.5-7.8,7.8l-0.1,75.2c-0.3-0.2-0.5-0.3-0.7-0.5c-3-1.6-6-3-9.2-4
			c-3.9-1.2-7.8-1.8-11.9-1.8c-6.4,0-12.6,1.2-18.5,3.6c-5.6,2.3-10.7,5.6-15,10c-4.2,4.2-7.6,9.1-9.9,14.6
			c-2.5,5.6-3.7,11.6-3.7,17.7s1.2,12.2,3.6,17.8c4.7,11.2,13.7,20,24.9,24.7c5.8,2.4,12.1,3.7,18.5,3.6c4.2,0.1,8.5-0.5,12.6-1.7
			c3.1-0.9,6.3-2.1,9.2-3.6c0.8-0.5,1.7-0.9,2.3-1.3v1.2C287.9,359.2,289.5,360.8,291.3,360.8z M279.7,332.2
			c-4.1,4.2-9.2,6.2-15.9,6.2s-11.8-2-15.9-6.2c-4.1-4.2-6.3-9.7-6.1-15.5c0-6.4,1.9-11.4,6-15.4c4.1-4.1,9.2-6,15.9-6
			s11.8,1.9,15.9,6c4.1,4.1,6,9.1,6,15.4C285.9,322.4,283.7,328,279.7,332.2L279.7,332.2z M179.6,359.4c5.6-2.3,10.7-5.6,15-10
			c4.2-4.2,7.6-9.1,9.9-14.6c4.9-11.4,4.9-24.3,0-35.7c-2.3-5.4-5.7-10.4-10-14.6c-4.3-4.2-9.4-7.5-15-9.8c-11.8-4.8-25-4.8-36.7,0
			c-5.5,2.3-10.5,5.6-14.8,9.8c-4.2,4.2-7.7,9.1-10,14.6c-4.9,11.4-4.9,24.3,0,35.7c2.4,5.4,5.7,10.4,10,14.6
			c8.8,8.8,20.8,13.7,33.1,13.6C167.5,363.1,173.8,361.8,179.6,359.4z M151.3,336.5c-2.2-1-4.2-2.4-5.9-4.2
			c-1.9-1.9-3.5-4.2-4.6-6.8c-2.2-5.4-2.2-11.4,0-16.8c1.1-2.6,2.7-5,4.6-7c1.9-1.9,4.2-3.5,6.8-4.6c5.4-2.2,11.4-2.2,16.8,0
			c5.3,2.2,9.4,6.4,11.6,11.6c2.2,5.4,2.2,11.4,0,16.8c-1.1,2.6-2.7,4.9-4.6,6.8c-1.6,1.6-3.3,2.9-5.4,3.8
			C164.7,339.4,157.5,339.4,151.3,336.5L151.3,336.5z M91.7,284.5c-4.3-4.2-9.4-7.5-15-9.8c-11.8-4.8-25-4.8-36.7,0
			c-5.5,2.3-10.5,5.6-14.8,9.8s-7.7,9.1-10,14.7c-2.4,5.6-4.4,11.6-4.4,17.8c0,6.4,1.9,12.4,4.4,17.9c2.4,5.4,5.7,10.4,9.9,14.6
			c8.8,8.8,20.8,13.7,33.1,13.6c6.4,0,12.6-1.2,18.5-3.6c5.6-2.3,10.7-5.6,15-10c4.2-4.2,7.6-9.1,10-14.6c4.9-11.4,4.9-24.3,0-35.7
			C99.3,293.6,95.9,288.7,91.7,284.5L91.7,284.5z M77.9,325.6c-1.1,2.6-2.7,4.9-4.6,6.8c-1.6,1.6-3.4,2.9-5.4,3.9
			c-6.1,3.1-13.3,3.2-19.5,0.3c-4.7-2.2-8.4-6.2-10.3-11c-2.2-5.4-2.2-11.4,0-16.8c1.1-2.6,2.7-5,4.6-6.9s4.2-3.5,6.8-4.6
			c5.4-2.2,11.4-2.2,16.8,0c5.3,2.2,9.4,6.4,11.6,11.6C80.2,314.1,80.2,320.2,77.9,325.6L77.9,325.6z M372.1,513.9
			c0-0.1-0.1-0.2-0.1-0.2l-0.8-0.7c1.1-0.6,2-1.7,2.6-2.8c0.8-1.8,1.3-3.8,1.2-5.8c0.1-1.4-0.2-2.9-0.7-4.2c-0.5-1-1.1-1.9-2-2.7
			c-0.8-0.6-1.8-1.1-2.9-1.4s-2.1-0.4-3.1-0.4c-0.8,0-1.8,0.1-3,0.2l-1.2,0.2c-1.5,0.3-2.6,1.6-2.5,3v23.1c-0.1,1.6,1,3,2.7,3
			c1.6,0.1,3-1,3-2.7c0-0.2,0-0.3,0-0.5v-8.3l0.9,0.3l3.7,9.2c0.5,1.1,1.6,1.8,2.8,1.8c0.9,0,1.8-0.5,2.3-1.3c0.6-0.9,0.7-2,0.3-3
			L372.1,513.9z M368.3,508.3c-0.5,0.6-1.3,1-2.1,0.9h-1v-7.6h0.4c0.4,0,0.7,0,1.1,0c0.7-0.1,1.4,0.3,1.8,0.8
			c0.5,0.8,0.6,1.8,0.6,2.7C369,506.3,368.9,507.4,368.3,508.3z M492.1,496.2c-1.7,0.1-3,1.5-2.9,3.1v6.5c0.1,1-0.7,1.8-1.7,1.9
			h-2.3c-1-0.1-1.8-0.9-1.7-1.9v-6.5c0.1-1.6-1-3-2.7-3c-1.6-0.1-3,1-3,2.7c0,0.2,0,0.3,0,0.5v23c-0.1,1.6,1,3,2.7,3
			c1.7,0.1,3-1,3-2.7c0-0.2,0-0.3,0-0.5v-6.9c-0.1-1,0.7-1.8,1.7-1.9h2.3c1,0.1,1.8,0.9,1.7,1.9v6.8c-0.1,1.6,1,3,2.7,3
			c1.7,0.1,3-1,3-2.7c0-0.2,0-0.3,0-0.5v-23C495,497.6,493.7,496.2,492.1,496.2L492.1,496.2z M514.9,519.6h-4.1
			c-0.9-0.1-1.6-0.8-1.6-1.8v-2.6c-0.1-0.9,0.6-1.7,1.6-1.8h3.1c1.6-0.1,2.9-1.5,2.8-3c-0.1-1.5-1.3-2.7-2.8-2.8h-3.1
			c-0.9-0.1-1.6-0.8-1.6-1.8v-2.2c-0.1-0.9,0.6-1.7,1.6-1.8h3.9c1.6-0.1,2.8-1.6,2.7-3.1c-0.1-1.4-1.3-2.6-2.7-2.7h-8.5
			c-1.6,0.1-2.8,1.3-2.7,2.9c0,0,0,0,0,0.1v23.4c-0.1,1.6,1.1,2.9,2.6,2.9c0,0,0,0,0.1,0h8.6c1.6-0.2,2.8-1.6,2.6-3.2
			C517.4,520.8,516.3,519.7,514.9,519.6z M572.8,411.4l1-14.3c0.2-1.8-1.3-3.5-3.1-3.7c-0.1,0-0.2,0-0.3,0c-3,0.1-5.9,0.6-8.6,1.8
			c-3.3,1.2-6.5,2.9-9.4,4.8c-3.3,2.2-6.4,4.8-9,7.7c-0.6,0.6-1,1.1-1.6,1.8c-0.2-2.7-0.5-5.6-0.7-8.6v-1.9c0-1.8-1.6-3.3-3.4-3.3
			h-11.9c-4.1,0-7.3,3.2-7.3,7.3v73.5c0,4.1,3.2,7.3,7.3,7.3h10.2c4.1,0,7.3-3.2,7.3-7.3v-35.5c-0.2-6.1,2.3-12,6.9-16.1
			c4.1-3.7,9.2-5.8,15.6-6.4C569.5,417.8,572.4,415.1,572.8,411.4z M667.3,396.2c-0.6-0.9-1.7-1.6-2.8-1.5h-15.2
			c-2.2,0-4.2,1.3-5.3,3.2c-2.1,4.3-18.4,40.3-19,41.6c-0.8-1.7-20.5-41.7-20.5-41.7c-1-1.9-3-3.2-5.3-3.2h-0.5h-16.2
			c-1.8,0-3.4,1.6-3.4,3.4c0,0.6,0.1,1,0.4,1.6l31.3,64.3c0.6,1.4,0.7,2.9,0.3,4.2c-10.2,28-27.8,30.4-35.2,31.4
			c-3.8,0.6-6.6,3.7-6.7,7.5v13.4c0,0.9,0.4,1.8,1,2.5c0.6,0.6,1.6,1,2.5,0.9c7.4-0.3,14.7-1.6,21.7-4c6.6-2.2,12.6-5.8,17.7-10.4
			c5-4.6,13.1-4.8,55.1-110.1C667.8,398.4,667.8,397.2,667.3,396.2L667.3,396.2z M540.4,496.1c-1.6,0.1-2.9,1.4-2.8,3l0,0v11.5
			c-0.1-0.2-0.1-0.3-0.2-0.5l-6.6-12.7c-0.5-0.9-1.5-1.5-2.5-1.5c-1.6,0-2.8,1.4-2.8,3l0,0v23.5c-0.3,1.5,0.8,3,2.3,3.1
			c1.5,0.2,3-0.8,3.1-2.3c0-0.3,0-0.6,0-0.8V511c0-0.1,0-0.3,0-0.4l0.1,0.3c0.1,0.2,0.1,0.3,0.2,0.5l6.5,12.6
			c0.5,0.9,1.5,1.6,2.5,1.6c1.6-0.1,2.9-1.4,2.8-3l0,0v-23.5C543.2,497.6,542,496.2,540.4,496.1z M480.9,377.9
			c2.8,2.6,6.4,4.1,10.1,4.1s7.2-1.5,9.9-4.1c3-2.7,4.7-6.6,4.6-10.6c0-8-6.6-14.6-14.6-14.6c-8,0-14.6,6.6-14.6,14.6l0,0
			C476.1,371.4,477.8,375.3,480.9,377.9L480.9,377.9z M495.8,395.4h-10.3c-4,0-7.2,3.2-7.2,7.2l0,0v73.6c0,4,3.2,7.2,7.2,7.2l0,0
			h10.3c4,0,7.2-3.2,7.2-7.2v-73.7C503,398.6,499.8,395.4,495.8,395.4z M428.8,496.1h-0.4c-1.3,0-2.4,1-2.6,2.4l-1.8,12.9l-2.8-13.1
			c-0.2-1.4-1.6-2.3-3-2.1c-1.1,0.2-1.9,1-2.1,2.1l-2.9,13l-2-12.9c-0.2-1.3-1.3-2.3-2.6-2.3h-0.8c-0.7,0-1.5,0.4-1.9,0.9
			c-0.6,0.6-0.7,1.6-0.6,2.5l4.7,23.7c0.2,1.3,1.3,2.2,2.6,2.2h0.2c1.2,0,2.3-0.9,2.5-2.1l3-13.6c0,0,0,0,0-0.1l0,0l3.1,13.7
			c0.3,1.2,1.3,2.1,2.6,2.1c1.3-0.1,2.3-1,2.6-2.2l4.8-23.7c0.2-0.8,0-1.8-0.6-2.5C430.3,496.6,429.6,496.2,428.8,496.1z
			 M395.1,519.6H391c-0.9-0.1-1.6-0.8-1.5-1.8v-2.6c-0.1-0.9,0.6-1.7,1.5-1.8h3.1c1.6-0.1,2.9-1.5,2.8-3c-0.1-1.5-1.3-2.7-2.8-2.8
			H391c-0.9-0.1-1.6-0.8-1.5-1.8v-2.2c-0.1-0.9,0.6-1.7,1.5-1.8h3.9c1.6-0.1,2.8-1.6,2.7-3.1c-0.1-1.4-1.3-2.6-2.7-2.7h-8.5
			c-1.6,0-2.8,1.3-2.7,2.9c0,0,0,0,0,0.1v23.4c-0.1,1.6,1.1,2.9,2.6,2.9c0,0,0,0,0.1,0h8.6c1.6-0.1,2.9-1.5,2.8-3
			C397.8,520.9,396.6,519.7,395.1,519.6L395.1,519.6z M439.9,480c0,1.8,1.6,3.4,3.4,3.4l0,0h12.6c3.7,0,6.6-3,6.6-6.6V402
			c0-3.7-3-6.6-6.6-6.6h-8.6c-3.4,0.1-6.3,2.8-6.6,6.2c0,0,0,0,0,0.1c-1.1-0.7-2.3-1.5-3.7-2.3c-3-1.6-6-3-9.2-4.1
			c-3.9-1.3-7.8-1.9-11.9-1.9c-6.4-0.1-12.6,1.2-18.5,3.7c-5.5,2.4-10.6,5.8-15,10.1c-4.2,4.2-7.6,9.2-9.9,14.7
			c-4.9,11.3-4.9,24.1,0,35.4c2.4,5.4,5.7,10.4,9.9,14.6c4.3,4.2,9.4,7.6,15,9.9c5.8,2.4,12.1,3.7,18.5,3.6
			c4.2,0.1,8.5-0.5,12.6-1.7c3.1-0.9,6.2-2.1,9.1-3.6c0.8-0.5,1.7-0.9,2.4-1.4L439.9,480z M431.6,454.8c-4.1,4.2-9.2,6.2-15.9,6.2
			s-11.8-2-15.9-6.2c-4.1-4.2-6.3-9.7-6.1-15.5c0-6.4,1.9-11.4,6-15.4c4.1-4.1,9.2-6,15.9-6s11.8,1.9,15.9,6c4.1,4.1,6,9.1,6,15.4
			C437.8,445.1,435.7,450.6,431.6,454.8L431.6,454.8z M442.2,496.2c-1.7,0.1-3,1.5-2.9,3.1v23c-0.1,1.6,1,3,2.7,3c1.7,0.1,3-1,3-2.7
			c0-0.2,0-0.3,0-0.5v-23C445,497.6,443.7,496.2,442.2,496.2L442.2,496.2z M514.2,136c13.8-0.6,27.9-3.6,39.7-11.1
			c10.5-6.6,19-16,25.9-26.3c6.7-10.4,12.1-21.8,15.7-33.7c4.6-14.9-4.7-28.4-20-30c-52.2-5.2-100,28.6-126.9,70.9
			c-6.8-1.6-13.5-4-19.9-7c-11.7-5.7-21.8-14.2-33.2-20.5c-15.6-8.6-33.2-11.9-50.8-13.7c-18.3-1.8-36.8-1.6-55.2-0.2
			c-16,1.1-31.9,3.4-47.5,6.8c-4.6,1-9.2,2.3-13.7,4.1c-10.4,4.2-19.4,11.4-28.8,17.4c-9.7,6.1-20,10.1-30.8,12.8
			c-5.1-8-10.8-15.7-17.1-22.8c-17.3-19.8-39.9-35-65.1-42.7c-18.7-5.7-67.1-14.9-65.9,17.7c0.3,6.3,3.2,12.6,5.5,18.3
			c2.5,6.2,5.4,12.2,8.8,18c6.3,10.9,14.7,20.4,24.7,28.1c22.7,16.8,51.4,14.6,77.9,11.5c6.6-0.7,13.2-1.6,19.9-2.6
			c9.1,18.4,15.5,38.1,18.7,58.4l-18,1.2c-2.2,0.2-3.9,2.1-3.8,4.3c0.1,0.7,0.3,1.4,0.6,1.9l17.7,26.5l17.7,26.5
			c1.2,1.8,3.8,2.3,5.6,1.1c0.6-0.4,1-0.9,1.4-1.6l14.1-28.6l14.1-28.6c1-2,0.2-4.4-1.8-5.4c-0.6-0.3-1.4-0.5-2-0.4l-23.2,1.5
			c-1.8-13.5-5-26.7-9.3-39.6c-2.7-7.6-5.7-15-9.2-22.3c13.7-4.1,25.9-10.5,37.8-18.4c5.7-3.8,11.4-7.5,17.5-10.9l0.3-0.2
			c1.2-0.4,2.3-0.8,3.5-1.2c6.3-1.8,12.6-3.3,19-4.4c17.5-3,35.3-4.8,53-5c19.6-0.4,38.6,0.5,57.1,5.5c10.2,2.9,16.6,6.4,26.1,12.6
			c12.2,8,23.9,15.5,37.9,20.2c1.7,0.6,3.3,1,5,1.5c-8.3,17.5-14.2,35.9-17.5,55c-2,11.8-3,23.8-4.2,35.6c-3.2,31.9-6.2,63.7-9,95.6
			c-0.4,3.8-0.7,7.7-1,11.4c-0.5,6.1,5.6,11.4,11.4,11.4c6.6,0,10.9-5.3,11.4-11.4c2-24.7,4.5-49.5,6.9-74.2
			c1.4-14.5,2.8-29,4.3-43.5c0.5-4.4,0.9-8.9,1.5-13.3c0-0.6,0.1-1.3,0.3-1.9c-1.4,5.6,0.3-1.3,0.5-2.7c1-6.2,2.4-12.4,4-18.5
			c3.5-13.4,8.5-26.3,14.8-38.6c4.5,0.7,9,1.3,13.7,1.9C487.1,134.8,500.7,136.6,514.2,136L514.2,136z M127.9,112
			c-22.1,2.3-45.1,2.8-61.9-14.1c-7.5-7.6-12.9-16.8-17.4-26.4c-0.8-1.8-6.5-13.4-5.4-14.5c-0.6,0.7,5.4,0.4,5.9,0.4
			c23.1-0.2,45.1,7.8,63.9,20.9c12.3,8.7,22.9,19.5,31.6,31.8C139.1,110.8,133.4,111.5,127.9,112z M473,110.2
			c13.4-18.7,30.7-34.2,51.9-43.7c10-4.5,20.5-7.4,31.4-8.5c2.7-0.3,5.4-0.5,8.1-0.5c1.7,0,7.8-0.8,9,0.2c0.1,0.1,0.3-0.1,0.5-0.2
			c-0.6,1.3-1,2.7-1.4,4.1c-6.6,18.9-18.1,39.6-37.5,47.6c-10.8,4.4-22.7,4.6-34.2,3.9C491.6,112.5,482.2,111.4,473,110.2z
			 M467.7,496.1h-12.4c-1.6,0.2-2.8,1.6-2.6,3.2c0.1,1.4,1.2,2.5,2.6,2.6h1.8c0.9,0.1,1.6,0.8,1.5,1.8v18.7
			c-0.1,1.6,1.1,2.9,2.6,2.9c0,0,0,0,0.1,0h0.4c1.6,0,2.8-1.3,2.7-2.9c0,0,0,0,0-0.1v-18.7c-0.1-0.9,0.6-1.7,1.5-1.8h1.8
			c1.6-0.2,2.8-1.6,2.6-3.2C470.2,497.4,469.1,496.3,467.7,496.1L467.7,496.1z"/>
	</g>
</g>
</svg>
