<?xml version="1.0" encoding="utf-8"?>
<!-- Generator: Adobe Illustrator 25.3.1, SVG Export Plug-In . SVG Version: 6.00 Build 0)  -->
<svg version="1.1" id="Layer_1" xmlns="http://www.w3.org/2000/svg" xmlns:xlink="http://www.w3.org/1999/xlink" x="0px" y="0px"
	 width="53.8px" height="53.8px" viewBox="0 0 53.8 53.8" enable-background="new 0 0 53.8 53.8" xml:space="preserve">
<g id="Layer_2_1_">
	<g id="Header">
		<path fill="#0F1A2E" d="M33.2,14.1C31.6,14,31.1,14,26.9,14s-4.7,0-6.3,0.1c-4.2,0.2-6.2,2.2-6.4,6.4C14,22.2,14,22.7,14,26.9
			s0,4.7,0.1,6.3c0.2,4.2,2.2,6.2,6.4,6.4c1.6,0.1,2.1,0.1,6.3,0.1s4.7,0,6.3-0.1c4.2-0.2,6.2-2.2,6.4-6.4c0.1-1.6,0.1-2.1,0.1-6.3
			s0-4.7-0.1-6.3C39.4,16.3,37.5,14.3,33.2,14.1z M26.9,34.9c-4.4,0-8-3.6-8-8.1c0-4.4,3.6-8,8.1-8s8,3.6,8,8.1c0,0,0,0,0,0
			C34.9,31.4,31.3,34.9,26.9,34.9z M35.2,20.4c-1,0-1.9-0.8-1.9-1.9c0-1,0.8-1.9,1.9-1.9c1,0,1.9,0.8,1.9,1.9
			C37.1,19.5,36.3,20.4,35.2,20.4z M32.1,26.9c0,2.9-2.3,5.2-5.2,5.2c-2.9,0-5.2-2.3-5.2-5.2c0-2.9,2.3-5.2,5.2-5.2c0,0,0,0,0,0
			C29.8,21.6,32.1,24,32.1,26.9C32.1,26.9,32.1,26.9,32.1,26.9z M26.9,0C12,0,0,12,0,26.9s12,26.9,26.9,26.9
			c14.8,0,26.9-12,26.9-26.9c0,0,0,0,0,0C53.8,12,41.7,0,26.9,0C26.9,0,26.9,0,26.9,0z M42.5,33.3c-0.3,5.7-3.5,8.9-9.1,9.1
			c-1.7,0.1-2.2,0.1-6.5,0.1s-4.8,0-6.5-0.1c-5.7-0.3-8.9-3.4-9.1-9.1c-0.1-1.7-0.1-2.2-0.1-6.5s0-4.8,0.1-6.5
			c0.3-5.7,3.4-8.9,9.1-9.1c1.7-0.1,2.2-0.1,6.5-0.1s4.8,0,6.5,0.1c5.7,0.3,8.9,3.4,9.1,9.1c0.1,1.7,0.1,2.2,0.1,6.5
			S42.5,31.7,42.5,33.3z"/>
	</g>
</g>
</svg>
